<svg xmlns="http://www.w3.org/2000/svg" version="1.1" xmlns:xlink="http://www.w3.org/1999/xlink" width="1500" height="204" viewBox="0 0 1500 204"><svg xml:space="preserve" width="1500" height="204" data-version="2" data-id="lg_p9d6pQEMllEndMgjYe" viewBox="0 0 645 204" x="0" y="0"><rect width="100%" height="100%" fill="transparent"></rect><path fill="#d94e28" d="M140.068 127.095q0 4.43 1.27 5.06.73.32 2 .32v-19.94h-2.53q-5.38 17.41-21.52 17.51-13.71 0-18.67-13.81-2.42-6.75-2.42-15.93 0-19.72 10.86-26.79 4.75-2.95 10.55-2.95 13.18 0 19.09 12.44 1.05 2.22 1.79 4.54h2.53l-.31-19.41q-2.32 0-2.85 1.48-.32 1.26-.32 4.11-3.06-3.06-10.44-4.96-4.85-1.16-9.91-1.16-16.67 0-25.53 12.34-6.11 8.76-6.11 20.15 0 13.82 8.54 23.2 9.07 9.7 23.62 9.7 10.66-.1 20.36-5.9"></path><rect width="55.79" height="65.39" x="-27.89" y="-32.7" fill="none" rx="0" ry="0" transform="translate(115.94 100.8)"></rect><path fill="#d94e28" d="M161.268 109.485q0-16.35 8.96-19.94 2.32-.84 4.86-.84 11.7 0 13.6 14.76.32 2.53.32 5.59 0 17.72-9.71 20.78-1.89.53-3.9.53-10.65 0-13.39-12.66-.74-3.69-.74-8.22m14.13-23.42q-10.12 0-16.87 6.96-6.23 6.44-6.23 16.03 0 13.29 9.71 19.94 5.9 4 13.08 4 10.12 0 16.77-7.17 6.11-6.54 6.11-16.34 0-13.29-9.81-19.73-5.8-3.69-12.76-3.69"></path><rect width="45.67" height="46.93" x="-22.84" y="-23.46" fill="none" rx="0" ry="0" transform="translate(175.63 110.03)"></rect><path fill="#d94e28" d="M225.918 129.305h-4.74v-22.78q.31-9.28 6.43-13.81 2.85-2.11 5.69-2.11 5.28 0 7.28 5.8.85 2.53.85 5.69v20.89q0 4.85-2.32 5.8-1.48.52-5.07.52v2.64h22.68q0-2.32-1.58-2.53-.43-.11-1.06-.11h-4.74v-27q1.68-7.7 7.48-10.75 2.22-1.06 4.22-1.06 5.38 0 7.6 5.59 1.05 2.64 1.05 6.01v20.89q0 4.85-2.32 5.8-1.48.52-5.06.52v2.64h23.31q0-2.32-1.59-2.53-.42-.11-1.05-.11h-5.38v-26.15q0-10.87-7.07-15.19-3.16-1.9-6.85-1.9-8.02 0-12.87 7.49-1.26 1.9-2.11 4.01-1.9-8.33-8.33-10.76-1.9-.74-3.9-.74-7.6 0-12.55 6.43-1.8 2.33-2.85 5.17l-.42-10.54h-15.29v2.63h7.91v33.23q0 4.85-2.75 5.8-1.58.52-5.16.52v2.64h23.2q0-2.21-1.58-2.53-.53-.11-1.06-.11"></path><rect width="80.26" height="45.88" x="-40.13" y="-22.94" fill="none" rx="0" ry="0" transform="translate(245.99 109.5)"></rect><path fill="#d94e28" d="M339.508 115.385q0-9.39-10.12-15.08-2.01-1.06-12.34-5.59-9.39-4.01-11.82-8.23-1.26-2.32-1.26-4.95 0-7.07 6.85-9.81 2.96-1.16 6.54-1.16 8.86 0 13.5 6.01 3.06 4.11 2.96 10.02h3.16v-18.46q-2.53 0-2.95 1.58-.21.74-.21 2.01-7.49-4.12-16.88-4.12-11.39 0-17.72 6.33-4.22 4.43-4.22 10.34 0 8.86 9.92 14.45 1.79.95 12.02 5.38 9.49 4.22 12.02 8.54 1.38 2.43 1.38 5.27 0 7.39-7.18 10.66-3.37 1.47-7.48 1.47-16.14-.21-17.93-19.72h-3.17v21.83q2.53 0 2.95-1.48.22-.84.22-3.05 8.12 5.37 18.45 5.37 12.13 0 18.78-6.53 4.53-4.64 4.53-11.08"></path><rect width="44.93" height="65.39" x="-22.46" y="-32.7" fill="none" rx="0" ry="0" transform="translate(317.54 100.8)"></rect><path fill="#d94e28" d="M386.018 132.995q8.12 0 8.97-9.8.1-.64.1-1.16l-2.74-.11q-.74 7.7-4.11 7.81-2.74-.22-2.85-5.49v-22.25q0-15.08-15.08-15.93h-1.9q-11.81 0-15.82 5.49-1.27 1.79-1.27 3.58 0 3.27 3.06 3.8.53.1 1.06.1 2.42 0 3.58-3.05 1.48-3.91 2.01-4.65 2-2.63 6.22-2.63 9.91.63 10.23 10.86v6.65q-24.78 0-28.37 10.33-.63 2.01-.63 4.33 0 8.01 7.06 10.96 2.85 1.16 6.01 1.16 7.7 0 12.98-5.27 1.9-2 2.84-4.22 1.27 9.39 8.65 9.49m-20.99-4.21q-6.43 0-7.91-6.44-.31-1.47-.31-3.27 0-7.06 8.12-8.96 4.32-.95 12.55-1.06v8.44q-1.58 7.28-7.7 10.23-2.42 1.06-4.75 1.06"></path><rect width="46.61" height="46.93" x="-23.3" y="-23.46" fill="none" rx="0" ry="0" transform="translate(372.28 110.03)"></rect><path fill="#d94e28" d="M428.838 71.405q9.39 0 12.13 8.44.85 2.74.85 5.9 0 13.72-12.24 15.09-1.26.1-2.53.1h-9.7v-29.53Zm-.95 60.54q0-2.32-1.68-2.64-.53-.1-1.06-.1h-7.8v-25.21h9.28q17.3 0 22.89-9.81 2.21-3.69 2.21-8.54 0-10.44-9.07-14.66-4.85-2.32-11.6-2.32h-31.22v2.74h8.44v57.8h-8.44v2.74Z"></path><rect width="51.89" height="63.28" x="-25.95" y="-31.64" fill="none" rx="0" ry="0" transform="translate(426.28 100.8)"></rect><path fill="#d94e28" d="M149.668 172.465h1.48v6.48q.04 4.34 4.33 4.36 3.26 0 3.95-2.67.2-.82.2-1.86v-6.31h1.49v-.48h-3.62v.48h1.48v6.42q0 3.6-2.67 3.88-.22.02-.44.02-2.27 0-2.86-1.91-.26-.84-.26-2.04v-6.37h1.47v-.48h-4.55Z"></path><rect width="11.45" height="11.32" x="-5.72" y="-5.66" fill="none" rx="0" ry="0" transform="translate(155.9 178.15)"></rect><path fill="#d94e28" d="M165.388 182.655h-.84v-4.01q.06-1.72 1.23-2.49.5-.31 1.02-.31 1.13 0 1.54 1.06.16.42.16.96v3.68q0 .85-.48 1.02-.28.09-.91.09v.46h4.18q0-.41-.28-.44-.08-.02-.19-.02h-.93v-4.6q0-1.86-1.28-2.66-.59-.35-1.28-.35-1.37 0-2.26 1.1-.33.42-.54.94l-.07-1.85h-2.69v.46h1.39v5.85q0 .85-.48 1.02-.28.09-.91.09v.46h4.08q0-.41-.28-.44-.07-.02-.18-.02"></path><rect width="9.52" height="8.07" x="-4.76" y="-4.04" fill="none" rx="0" ry="0" transform="translate(167.03 179.58)"></rect><path fill="#d94e28" d="M176.108 182.655h-.93v-7.42h-2.87v.46h1.48v5.85q0 .85-.57 1.03-.28.08-.91.08v.46h4.26q0-.41-.27-.44-.1-.02-.19-.02m-.7-10.13q0-.65-.58-.93-.22-.09-.43-.09-.65 0-.92.59-.1.21-.1.43 0 .68.62.94.2.08.4.08.65 0 .91-.6.1-.2.1-.42"></path><rect width="4.26" height="11.61" x="-2.13" y="-5.8" fill="none" rx="0" ry="0" transform="translate(174.94 177.81)"></rect><path fill="#d94e28" d="M177.498 175.695h1.3v5.23q.13 2.32 2.13 2.4 1.71 0 2.14-2.1v-.04l-.5-.09q-.47 1.54-1.36 1.67-1-.04-1.02-1.43v-5.64h2.88v-.46h-2.88v-2.16l-1.39.39v1.77h-1.3Z"></path><rect width="5.57" height="10.25" x="-2.79" y="-5.13" fill="none" rx="0" ry="0" transform="translate(180.78 178.7)"></rect><path fill="#d94e28" d="M187.518 182.655h-.93v-7.42h-2.87v.46h1.48v5.85q0 .85-.57 1.03-.28.08-.91.08v.46h4.27q0-.41-.28-.44-.1-.02-.19-.02m-.7-10.13q0-.65-.58-.93-.22-.09-.43-.09-.65 0-.92.59-.1.21-.1.43 0 .68.62.94.2.08.4.08.65 0 .91-.6.1-.2.1-.42"></path><rect width="4.27" height="11.61" x="-2.13" y="-5.8" fill="none" rx="0" ry="0" transform="translate(186.35 177.81)"></rect><path fill="#d94e28" d="M192.718 182.655h-.84v-4.01q.06-1.72 1.23-2.49.5-.31 1.02-.31 1.13 0 1.54 1.06.16.42.16.96v3.68q0 .85-.48 1.02-.28.09-.91.09v.46h4.18q0-.41-.28-.44-.08-.02-.19-.02h-.92v-4.6q0-1.86-1.28-2.66-.6-.35-1.29-.35-1.37 0-2.26 1.1-.33.42-.54.94l-.07-1.85h-2.69v.46h1.39v5.85q0 .85-.48 1.02-.28.09-.91.09v.46h4.08q0-.41-.28-.44-.07-.02-.18-.02"></path><rect width="9.52" height="8.07" x="-4.76" y="-4.04" fill="none" rx="0" ry="0" transform="translate(194.36 179.58)"></rect><path fill="#d94e28" d="M201.488 177.975q.04-2.45 1.86-2.46 1.82.03 1.84 2.46-.04 2.53-1.84 2.55-1.84-.04-1.86-2.55m1.88-2.93q-1.67 0-2.66 1.08-.7.8-.7 1.87 0 1.41 1.37 2.34.13.09.26.17-1.19 0-1.48 1.02-.06.24-.06.48.02.98.8 1.47-.61.64-.61 1.31 0 1.02 1.2 1.52.76.34 1.88.34 2.82 0 3.73-1.37.29-.47.29-.99 0-1.59-1.83-1.84-.24-.03-.5-.03l-3.38-.08q-.85-.05-.87-.74 0-.48.61-.61.13-.02.28-.02l1.63.02q1.65 0 2.63-1.11.71-.8.71-1.9-.02-1.39-1.08-2.22.17-.6.63-.71.08-.02.15-.02.26 0 .56.28.2.19.37.19.46-.11.54-.6 0-.57-.54-.78-.2-.07-.41-.07-.87 0-1.41.78-.2.3-.31.65-.84-.43-1.8-.43m0 11.12q-1.84 0-2.32-.97-.13-.26-.13-.52.02-.5.44-1 .37.07.62.07l2.85.04q1.39.02 1.62.63.05.15.05.37 0 .82-1.52 1.19-.74.19-1.61.19"></path><rect width="7.83" height="12.6" x="-3.92" y="-6.3" fill="none" rx="0" ry="0" transform="translate(204.42 180.84)"></rect><path fill="#d94e28" d="M216.908 183.115q0-.41-.29-.46-.1-.02-.19-.02h-.98v-4.99h5.69v4.99h-1.48v.48h4.54q0-.41-.29-.46-.1-.02-.19-.02h-.98v-10.17h1.46v-.48h-4.54v.48h1.48v4.64h-5.69v-4.64h1.46v-.48h-4.54v.48h1.48v10.17h-1.48v.48Z"></path><rect width="11.83" height="11.13" x="-5.92" y="-5.57" fill="none" rx="0" ry="0" transform="translate(218.78 178.05)"></rect><path fill="#d94e28" d="M229.568 175.515q1.3 0 1.72 1.09.15.35.15.76 0 .93-.89 1.13-.46.1-1.32.08l-1.96-.06q.09-2.13 1.39-2.78.42-.22.91-.22m3.22 5.82-.46-.17q-.65 1.41-2.1 1.6-.18.02-.35.02-1.95 0-2.45-2.32-.15-.65-.16-1.43l2.22.04q2.27.04 2.92-.43.5-.37.5-1.06 0-1.26-1.28-2-.91-.54-2.1-.54-2.32 0-3.32 1.93-.52 1-.52 2.26 0 2.31 1.65 3.42.98.65 2.24.65 2.01 0 2.96-1.45.14-.26.25-.52"></path><rect width="7.22" height="8.26" x="-3.61" y="-4.13" fill="none" rx="0" ry="0" transform="translate(229.8 179.68)"></rect><path fill="#d94e28" d="M240.808 183.305q1.43 0 1.58-1.73.02-.11.02-.2l-.49-.02q-.13 1.35-.72 1.37-.48-.03-.5-.96v-3.92q0-2.65-2.65-2.8h-.34q-2.08 0-2.78.97-.22.31-.22.63 0 .57.53.67.1.01.19.01.43 0 .63-.53.26-.69.35-.82.36-.46 1.1-.46 1.74.11 1.8 1.91v1.17q-4.36 0-4.99 1.81-.12.36-.12.76 0 1.41 1.25 1.93.5.21 1.06.21 1.35 0 2.28-.93.33-.35.5-.74.22 1.65 1.52 1.67m-3.69-.74q-1.13 0-1.39-1.14-.06-.26-.06-.57 0-1.24 1.43-1.58.76-.16 2.21-.18v1.48q-.28 1.28-1.36 1.8-.42.19-.83.19"></path><rect width="8.21" height="8.26" x="-4.11" y="-4.13" fill="none" rx="0" ry="0" transform="translate(238.8 179.68)"></rect><path fill="#d94e28" d="M247.208 182.655h-1.33v-3.69q0-1.69 1.03-2.71.41-.39.69-.41.32 0 .58.46.29.52.55.6.11.03.23.03.55 0 .7-.53.04-.12.04-.23 0-.83-.86-1.02-.18-.03-.35-.03-1.11 0-1.98.94-.41.45-.65 1l-.08-1.83h-2.69v.46h1.39v5.85q0 .85-.48 1.02-.28.09-.91.09v.46h4.59q0-.41-.28-.44-.08-.02-.19-.02"></path><rect width="6.61" height="7.99" x="-3.31" y="-4" fill="none" rx="0" ry="0" transform="translate(246.9 179.62)"></rect><path fill="#d94e28" d="M250.158 175.695h1.3v5.23q.13 2.32 2.13 2.4 1.71 0 2.14-2.1v-.04l-.5-.09q-.47 1.54-1.36 1.67-1-.04-1.02-1.43v-5.64h2.88v-.46h-2.88v-2.16l-1.39.39v1.77h-1.3Z"></path><rect width="5.57" height="10.25" x="-2.79" y="-5.13" fill="none" rx="0" ry="0" transform="translate(253.44 178.7)"></rect><path fill="#d94e28" d="M259.348 182.805q1.28 0 1.72-.78.17-.28.17-.61 0-.78-1.13-1.34-.24-.13-.8-.37-1.52-.63-2.02-1.19-.54-.61-.54-1.43 0-1.28 1.41-1.8.65-.24 1.41-.24 1.22 0 2.11.52 0-.54.26-.61.12-.02.25-.02v2.32h-.49q-.03-1.71-1.89-1.73-1.39 0-1.73.82-.09.22-.09.46 0 .8 1.15 1.36.26.13.82.35 1.5.61 2 1.17.54.59.54 1.41 0 1.5-1.59 2-.62.21-1.34.21-1.34-.02-2.32-.67 0 .48-.24.56-.11.02-.26.02v-2.82h.52q.04 2.39 2.08 2.41"></path><rect width="5.75" height="8.37" x="-2.88" y="-4.18" fill="none" rx="0" ry="0" transform="translate(260.12 179.62)"></rect><path fill="#d94e28" d="M266.078 182.435q0-1.01-.74-1.19-.15-.04-.28-.04-.59 0-.81.56-.08.18-.08.37 0 .59.59.82.1.01.15.03.41.11.43.32-.02.5-.82 1.33l.39.28q1.13-1.22 1.17-2.48"></path><rect width="1.91" height="3.71" x="-.95" y="-1.85" fill="none" rx="0" ry="0" transform="translate(265.62 183.56)"></rect><path fill="#d94e28" d="M280.608 182.265q0 .78.22.89.13.06.36.06v-3.51h-.45q-.95 3.06-3.79 3.08-2.41 0-3.28-2.43-.43-1.19-.43-2.8 0-3.47 1.92-4.72.83-.52 1.85-.52 2.32 0 3.36 2.19.18.39.31.8h.45l-.06-3.41q-.4 0-.5.26-.05.22-.05.72-.54-.54-1.84-.87-.85-.21-1.74-.21-2.94 0-4.49 2.18-1.08 1.54-1.08 3.54 0 2.43 1.5 4.08 1.6 1.71 4.16 1.71 1.87-.02 3.58-1.04"></path><rect width="9.82" height="11.51" x="-4.91" y="-5.75" fill="none" rx="0" ry="0" transform="translate(276.78 178.05)"></rect><path fill="#d94e28" d="M286.328 182.655h-.93v-4.01q0-1.69 1.17-2.45.48-.31 1-.31 1.13 0 1.58 1.05.2.51.2 1.12v3.49q0 .85-.41 1.02-.26.09-.89.09v.46h4.08q0-.41-.28-.44-.07-.02-.18-.02h-.93v-4.6q0-2.03-1.33-2.75-.52-.26-1.12-.26-1.37 0-2.3 1-.39.43-.59.97v-5.96h-2.79v.47h1.4v10.02q0 .85-.49 1.02-.27.09-.91.09v.46h4.18q0-.41-.28-.44-.07-.02-.18-.02"></path><rect width="9.52" height="12.06" x="-4.76" y="-6.03" fill="none" rx="0" ry="0" transform="translate(287.87 177.59)"></rect><path fill="#d94e28" d="M299.868 183.305q1.43 0 1.58-1.73.02-.11.02-.2l-.49-.02q-.13 1.35-.72 1.37-.48-.03-.5-.96v-3.92q0-2.65-2.65-2.8h-.34q-2.08 0-2.78.97-.22.31-.22.63 0 .57.53.67.1.01.19.01.43 0 .63-.53.26-.69.35-.82.36-.46 1.1-.46 1.74.11 1.8 1.91v1.17q-4.36 0-4.99 1.81-.12.36-.12.76 0 1.41 1.25 1.93.5.21 1.06.21 1.35 0 2.28-.93.33-.35.5-.74.22 1.65 1.52 1.67m-3.69-.74q-1.13 0-1.39-1.14-.06-.26-.06-.57 0-1.24 1.43-1.58.76-.16 2.21-.18v1.48q-.28 1.28-1.36 1.8-.42.19-.83.19"></path><rect width="8.21" height="8.26" x="-4.11" y="-4.13" fill="none" rx="0" ry="0" transform="translate(297.86 179.68)"></rect><path fill="#d94e28" d="M305.728 182.655h-.83v-4.01q.05-1.72 1.22-2.49.5-.31 1.02-.31 1.14 0 1.54 1.06.17.42.17.96v3.68q0 .85-.48 1.02-.28.09-.91.09v.46h4.17q0-.41-.27-.44-.08-.02-.19-.02h-.93v-4.6q0-1.86-1.28-2.66-.59-.35-1.28-.35-1.37 0-2.26 1.1-.34.42-.54.94l-.07-1.85h-2.69v.46h1.39v5.85q0 .85-.49 1.02-.27.09-.9.09v.46h4.08q0-.41-.28-.44-.08-.02-.19-.02"></path><rect width="9.51" height="8.07" x="-4.75" y="-4.04" fill="none" rx="0" ry="0" transform="translate(307.37 179.58)"></rect><path fill="#d94e28" d="M314.508 177.975q.04-2.45 1.86-2.46 1.81.03 1.83 2.46-.04 2.53-1.83 2.55-1.84-.04-1.86-2.55m1.87-2.93q-1.67 0-2.65 1.08-.7.8-.7 1.87 0 1.41 1.37 2.34.13.09.26.17-1.19 0-1.49 1.02-.05.24-.05.48.02.98.8 1.47-.62.64-.62 1.31 0 1.02 1.21 1.52.76.34 1.87.34 2.82 0 3.73-1.37.3-.47.3-.99 0-1.59-1.84-1.84-.24-.03-.5-.03l-3.37-.08q-.86-.05-.88-.74 0-.48.62-.61.13-.02.27-.02l1.64.02q1.65 0 2.63-1.11.71-.8.71-1.9-.02-1.39-1.08-2.22.17-.6.63-.71.08-.02.15-.02.26 0 .56.28.2.19.37.19.46-.11.54-.6 0-.57-.54-.78-.21-.07-.41-.07-.87 0-1.41.78-.21.3-.32.65-.83-.43-1.8-.43m0 11.12q-1.83 0-2.32-.97-.13-.26-.13-.52.02-.5.45-1 .37.07.61.07l2.86.04q1.39.02 1.61.63.06.15.06.37 0 .82-1.52 1.19-.74.19-1.62.19"></path><rect width="7.83" height="12.6" x="-3.92" y="-6.3" fill="none" rx="0" ry="0" transform="translate(317.44 180.84)"></rect><path fill="#d94e28" d="M325.378 182.655h-.93v-7.42h-2.87v.46h1.48v5.85q0 .85-.57 1.03-.28.08-.91.08v.46h4.27q0-.41-.28-.44-.09-.02-.19-.02m-.7-10.13q0-.65-.58-.93-.22-.09-.42-.09-.65 0-.93.59-.09.21-.09.43 0 .68.61.94.2.08.41.08.65 0 .9-.6.1-.2.1-.42"></path><rect width="4.27" height="11.61" x="-2.13" y="-5.8" fill="none" rx="0" ry="0" transform="translate(324.21 177.81)"></rect><path fill="#d94e28" d="M330.578 182.655h-.84v-4.01q.06-1.72 1.23-2.49.5-.31 1.02-.31 1.13 0 1.54 1.06.17.42.17.96v3.68q0 .85-.49 1.02-.28.09-.91.09v.46h4.18q0-.41-.28-.44-.07-.02-.19-.02h-.92v-4.6q0-1.86-1.28-2.66-.6-.35-1.28-.35-1.38 0-2.27 1.1-.33.42-.54.94l-.07-1.85h-2.69v.46h1.39v5.85q0 .85-.48 1.02-.28.09-.91.09v.46h4.08q0-.41-.28-.44-.07-.02-.18-.02"></path><rect width="9.52" height="8.07" x="-4.76" y="-4.04" fill="none" rx="0" ry="0" transform="translate(332.22 179.58)"></rect><path fill="#d94e28" d="M339.348 177.975q.04-2.45 1.86-2.46 1.82.03 1.84 2.46-.04 2.53-1.84 2.55-1.84-.04-1.86-2.55m1.88-2.93q-1.67 0-2.65 1.08-.71.8-.71 1.87 0 1.41 1.37 2.34.13.09.26.17-1.18 0-1.48 1.02-.06.24-.06.48.02.98.8 1.47-.61.64-.61 1.31 0 1.02 1.2 1.52.77.34 1.88.34 2.82 0 3.73-1.37.29-.47.29-.99 0-1.59-1.83-1.84-.24-.03-.5-.03l-3.38-.08q-.85-.05-.87-.74 0-.48.61-.61.13-.02.28-.02l1.63.02q1.65 0 2.64-1.11.7-.8.7-1.9-.02-1.39-1.08-2.22.17-.6.64-.71.07-.02.14-.02.26 0 .56.28.21.19.37.19.47-.11.54-.6 0-.57-.54-.78-.2-.07-.41-.07-.87 0-1.41.78-.2.3-.31.65-.84-.43-1.8-.43m0 11.12q-1.84 0-2.32-.97-.13-.26-.13-.52.02-.5.44-1 .38.07.62.07l2.85.04q1.4.02 1.62.63.05.15.05.37 0 .82-1.52 1.19-.74.19-1.61.19"></path><rect width="7.83" height="12.6" x="-3.92" y="-6.3" fill="none" rx="0" ry="0" transform="translate(342.28 180.84)"></rect><path fill="#d94e28" d="m358.348 183.115.1-3.71h-.37l-.32 1.25q-.44 1.7-1.48 1.94-.23.04-.43.04h-2.54v-10.17h1.56v-.48h-4.64v.48h1.48v10.17h-1.48v.48Z"></path><rect width="8.22" height="11.13" x="-4.11" y="-5.57" fill="none" rx="0" ry="0" transform="translate(354.84 178.05)"></rect><path fill="#d94e28" d="M362.988 182.655h-.92v-7.42h-2.88v.46h1.48v5.85q0 .85-.57 1.03-.28.08-.91.08v.46h4.27q0-.41-.28-.44-.09-.02-.19-.02m-.7-10.13q0-.65-.58-.93-.22-.09-.42-.09-.65 0-.93.59-.09.21-.09.43 0 .68.61.94.2.08.41.08.65 0 .91-.6.09-.2.09-.42"></path><rect width="4.27" height="11.61" x="-2.13" y="-5.8" fill="none" rx="0" ry="0" transform="translate(361.82 177.81)"></rect><path fill="#d94e28" d="M367.668 175.695v-.46h-3.6v.46h.83l2.27 6.22q.37 1.04.81 1.2.23.1.56.1h.24l2.62-6.87q.22-.57.54-.63.09-.02.16-.02.41 0 .45-.28.02-.09.02-.18h-2.86v.46h1.39l-2.35 6.33-2.38-6.33Z"></path><rect width="8.5" height="7.98" x="-4.25" y="-3.99" fill="none" rx="0" ry="0" transform="translate(368.82 179.72)"></rect><path fill="#d94e28" d="M377.238 175.515q1.3 0 1.73 1.09.15.35.15.76 0 .93-.89 1.13-.47.1-1.32.08l-1.97-.06q.1-2.13 1.39-2.78.43-.22.91-.22m3.23 5.82-.46-.17q-.65 1.41-2.1 1.6-.18.02-.35.02-1.95 0-2.45-2.32-.15-.65-.17-1.43l2.23.04q2.26.04 2.91-.43.5-.37.5-1.06 0-1.26-1.28-2-.91-.54-2.09-.54-2.32 0-3.33 1.93-.51 1-.51 2.26 0 2.31 1.65 3.42.98.65 2.24.65 2.01 0 2.95-1.45.15-.26.26-.52"></path><rect width="7.21" height="8.26" x="-3.6" y="-4.13" fill="none" rx="0" ry="0" transform="translate(377.47 179.68)"></rect><path fill="#d94e28" d="M384.758 182.805q1.28 0 1.72-.78.17-.28.17-.61 0-.78-1.13-1.34-.24-.13-.8-.37-1.52-.63-2.02-1.19-.54-.61-.54-1.43 0-1.28 1.41-1.8.65-.24 1.41-.24 1.22 0 2.12.52 0-.54.26-.61.11-.02.24-.02v2.32h-.49q-.03-1.71-1.89-1.73-1.39 0-1.72.82-.1.22-.1.46 0 .8 1.15 1.36.26.13.82.35 1.5.61 2 1.17.54.59.54 1.41 0 1.5-1.59 2-.62.21-1.34.21-1.34-.02-2.32-.67 0 .48-.24.56-.11.02-.26.02v-2.82h.52q.04 2.39 2.08 2.41"></path><rect width="5.75" height="8.37" x="-2.88" y="-4.18" fill="none" rx="0" ry="0" transform="translate(385.53 179.62)"></rect><path fill="#d94e28" d="M6.336 1.844v200.312h153.003v-5.717H11.655V7.561h621.69v188.878H485.66v5.717h153.003V1.844z"></path><circle r="6.4" fill="#d94e28" transform="translate(535.02 86.31)scale(2.0414)"></circle><path fill="#d94e28" d="M557.878 122.243c0-.408-.204-.613-.408-1.02l-8.982-16.944c-.613-1.225-2.042-2.042-3.47-2.042h-20.006c-1.43 0-2.654.817-3.47 2.042l-8.983 16.943c-.204.408-.204.613-.408 1.02l-3.47 15.72a4.083 4.083 0 0 0 2.857 4.695h.817c1.837 0 3.266-1.225 3.675-3.062l3.266-15.107 3.674-6.94-2.245 24.292c-.204 2.246 1.633 4.287 3.878 4.287h.613v31.234l-3.879 1.02c-2.041.613-3.266 2.654-2.654 4.696.409 1.633 2.042 2.858 3.675 2.858.408 0 .612 0 1.02-.205l7.146-1.837c1.633-.408 2.857-2.041 2.857-3.674v-34.092h3.47v34.092a3.74 3.74 0 0 0 2.859 3.674l7.145 1.837c.408 0 .612.205 1.02.205 1.634 0 3.267-1.225 3.675-2.858.612-2.042-.612-4.083-2.654-4.696l-4.287-1.02v-31.234h.613c2.245 0 4.082-2.041 3.878-4.287l-2.245-24.292 3.674 6.94 3.266 15.107c.409 1.837 2.042 3.062 3.675 3.062h.817a3.728 3.728 0 0 0 2.858-4.695zm-55.322 19.19c0-.205-.204-.41-.204-.817l-6.328-11.84c-.408-.817-1.43-1.43-2.45-1.43h-14.086c-1.02 0-2.04.613-2.45 1.43l-6.328 11.84c-.204.204-.408.408-.408.816l-2.45 11.024c-.408 1.429.613 3.062 2.042 3.266h.612c1.225 0 2.45-.817 2.654-2.246l2.45-10.615 2.45-4.695-1.43 16.943c-.204 1.634 1.225 3.063 2.858 3.063h.205v21.843l-2.858.816c-1.43.408-2.45 1.837-2.042 3.47.409 1.225 1.43 2.042 2.654 2.042h.613l4.899-1.225c1.225-.408 2.041-1.429 2.041-2.654v-24.292h2.246v23.884c0 1.225.816 2.45 2.041 2.654l4.9 1.225h.612c1.225 0 2.45-.817 2.654-2.042a2.799 2.799 0 0 0-2.042-3.47l-2.858-.817v-21.434h.205c1.633 0 2.858-1.43 2.858-3.063l-.817-16.943 2.45 4.695 2.45 10.615c.204 1.225 1.428 2.246 2.653 2.246h.613c1.429-.408 2.45-1.837 2.041-3.266z"></path><circle r="5" fill="#d94e28" transform="translate(486.43 114.48)scale(2.0414)"></circle><path fill="#d94e28" d="M621.57 182.464c-.612-.612-1.225-.816-2.041-.816v-42.053h1.02c1.02 0 1.838-.817 1.838-1.837s-.817-1.838-1.838-1.838h-5.716c-1.02 0-1.837.817-1.837 1.838s.817 1.837 1.837 1.837h1.021v41.849c-.817 0-1.429.408-2.041.816-.613.612-.817 1.43-.817 2.246a1.83 1.83 0 0 0 1.837 1.837c.817 0 1.633-.613 1.633-1.43h2.246c.204.817.817 1.43 1.633 1.43a1.83 1.83 0 0 0 1.837-1.837c.205-.817 0-1.43-.612-2.042m-41.032-99.008c-.204.817-.204 1.838-.204 2.858a13.677 13.677 0 0 0 27.354 0c0-1.02 0-1.837-.204-2.858-3.674.817-8.37 1.225-13.473 1.225-5.103-.204-10.003-.612-13.473-1.225"></path><path fill="#d94e28" d="m607.484 179.198-4.287-1.02 1.838-16.944v-.817l-.613-6.737c2.042-.204 3.675-2.04 3.47-4.286l-2.45-32.255 4.492 6.533 3.879 11.228c.408-.205.816-.205 1.224-.205h6.125l-4.696-13.677c0-.204-.204-.612-.408-.816l-10.411-15.515c-.612-1.02-1.837-1.633-2.858-1.633h-17.352c-1.225 0-2.245.612-3.062 1.633l-10.411 16.943c-.204.409-.408.613-.408 1.021l-3.47 15.719c-.409 1.837.816 3.674 2.653 4.083h.817c1.633 0 3.062-1.02 3.47-2.654l3.266-15.106 4.287-6.941-2.654 31.437c-.204 2.246 1.43 4.083 3.47 4.287l-.612 6.737v.817l1.838 16.943-4.287 1.02c-1.838.41-3.062 2.45-2.45 4.288.408 1.633 1.837 2.654 3.47 2.654.205 0 .613 0 .817-.205l7.145-1.837c1.633-.408 2.858-2.041 2.654-3.674l-2.042-19.598.817-7.145h6.736l.817 7.145-2.041 19.598c-.205 1.633 1.02 3.266 2.653 3.674l7.145 1.837c.204 0 .613.205.817.205 1.633 0 3.062-1.021 3.47-2.654 0-1.633-1.02-3.675-2.858-4.083m-13.677-96.15c10.207 0 18.577-1.837 18.577-4.083 0-1.225-2.654-2.245-6.737-3.062l-.612-6.94c-.205-1.225-1.43-2.246-2.654-1.838l-7.758 1.633h-.816l-8.166-1.633c-1.225-.204-2.45.613-2.654 1.837l-.816 7.145c-4.083.817-6.737 1.838-6.737 3.062-.204 2.246 8.166 3.879 18.373 3.879"></path><circle r="4.4" fill="#d94e28" transform="translate(447.24 136.33)scale(2.0414)"></circle><path fill="#d94e28" d="m442.13 173.89 2.655-4.287-2.858-1.837a6.213 6.213 0 0 1-1.633-1.633l-3.675 5.92c-.408.817-.612 1.633-.204 2.45l2.246 5.716-.613.204c-1.429.408-2.45 2.041-2.041 3.47.408 1.225 1.429 2.042 2.654 2.042.204 0 .408 0 .816-.205l3.675-1.02c.816-.204 1.429-.817 1.837-1.43.408-.612.408-1.428.204-2.245zm14.29 6.533-.816-.204 2.246-6.329c.204-.816.204-1.837-.204-2.45l-3.675-5.511c-.408.612-.817 1.225-1.633 1.633l-2.858 1.837 2.654 3.879-2.858 7.757c-.204.817-.204 1.633.204 2.246.408.612 1.02 1.225 1.633 1.429l3.675 1.02c.204 0 .612.205.816.205 1.225 0 2.45-.817 2.654-2.042.408-1.429-.408-3.062-1.837-3.47m4.083-25.926-5.715-6.532c-.613-.613-1.225-1.021-2.042-1.021h-11.023c-.817 0-1.634.408-2.042 1.02l-5.716 6.329-4.695 5.103c-1.02 1.225-1.02 2.858.204 3.88.613.407 1.225.816 1.837.816.817 0 1.43-.205 2.042-.817l4.695-5.103 2.041-2.246.409 7.35h13.269l.408-7.35 2.042 2.45 4.695 5.103c.612.613 1.225.817 2.041.817.613 0 1.43-.204 1.837-.817 1.225-1.02 1.225-2.858.205-3.878zm-249.389-27.878a2.507 2.507 0 0 0-.836-1.223c-8.918-7.1-13.617-14.594-13.994-22.295 9.879 4.908 17.696.397 21.97-10.185a38.94 38.94 0 0 0 1.23-3.542 70.148 70.148 0 0 1 2.194-6.29c6.614-16.376 16.887-23.412 16.887-23.412s-38.92-8.35-49.783 10.53a32.33 32.33 0 0 0-1.953 4.008c-3.736 9.244-2.6 19.24 4.507 25.58a25.615 25.615 0 0 0-.104 2.047c-.097 9.748 5.265 19.002 15.911 27.485a2.513 2.513 0 0 0 3.97-2.703m-13.681-28.6a15.868 15.868 0 0 1-.69-.419c2.29-10.69 11.923-18.207 12.033-18.292h-.002a2.51 2.51 0 1 0-3.05-3.988v-.003c-.477.364-9.648 7.483-13.15 18.403a14.441 14.441 0 0 1-2.285-4.915c-.987-3.84-.563-8.355 1.197-12.714a27.373 27.373 0 0 1 1.652-3.383c1.858-3.23 5.102-5.71 9.641-7.363 4.042-1.475 9.06-2.302 14.919-2.459 3.57-.096 7.016.071 10.005.336-4.325 5.155-8 11.336-10.683 17.981a75.101 75.101 0 0 0-2.353 6.74 34.325 34.325 0 0 1-1.073 3.09c-2.37 5.868-5.273 7.933-7.292 8.632-2.48.86-5.465.305-8.87-1.645m78.398-42.104a26.232 26.232 0 0 0-1.722-1.112c-8.393-4.962-19.093-4.943-31.765.037a2.513 2.513 0 1 0 1.84 4.676c10.608-4.172 19.448-4.495 26.305-.972-3.156 2.095-5.229 4.534-6.305 7.2-2.388 5.913.127 12.934 6.591 19.756 14.983 15.809 16.183 31.375 16.183 31.375s10.076-11.15 15.314-24.119c3.287-8.139 4.667-16.992.458-24.26-5.921-10.222-16.527-16.003-26.899-12.581m22.552 15.1c2.835 4.894 2.575 11.576-.77 19.86-2.236 5.535-5.466 10.777-8.3 14.818-2.345-6.45-6.73-15.04-14.89-23.65-2.71-2.86-4.613-5.758-5.507-8.381-.773-2.272-.797-4.248-.074-6.037.828-2.05 2.669-3.916 5.473-5.547a21.91 21.91 0 0 1 .707-.385c8.113 7.33 9.807 19.427 9.824 19.565l.003-.001a2.515 2.515 0 0 0 1.932 2.125 2.512 2.512 0 0 0 3.006-1.891 2.489 2.489 0 0 0 .04-.881l.003-.001c-.077-.593-1.655-12.085-9.355-20.576 2.266-.234 4.561.077 6.822.94 4.362 1.665 8.3 5.232 11.086 10.043m-13.955 49.16a2.51 2.51 0 0 0-.643 1.337c-1.688 11.272-5.83 19.09-12.31 23.265-.763-12.167-10.227-16.402-23.488-13.227-21.181 5.07-35.262-1.675-35.262-1.675s12.228 37.881 34.009 37.85c10.516-.016 19.846-5.006 23.335-13.644a19.594 19.594 0 0 0 1.014-3.362 26.214 26.214 0 0 0 1.822-.935c5.595-3.154 9.817-8.244 12.625-15.201 1.455-3.605 2.532-7.717 3.224-12.314l.001-.013a2.512 2.512 0 0 0-.776-2.215 2.514 2.514 0 0 0-3.55.135m-17.947 26.956c-10.402 3.36-21.727-1.221-21.856-1.276v.002a2.512 2.512 0 0 0-2.67 4.16 2.474 2.474 0 0 0 .742.476l-.001.003c.552.23 11.299 4.611 22.504 2.186-1.299 2.897-3.59 5.342-6.653 7.09-3.347 1.908-7.433 2.921-11.82 2.927-3.726.006-7.496-1.564-11.198-4.669-3.296-2.762-6.522-6.694-9.588-11.688-1.868-3.045-3.446-6.115-4.713-8.836 6.76 1.194 16.391 1.692 27.93-1.07 6.223-1.49 11.22-1.075 14.071 1.166 2.158 1.699 3.26 4.632 3.272 8.723 0 .272-.007.54-.02.806"></path></svg></svg>